<?xml version="1.0" encoding="UTF-8" standalone="no"?>
<!-- Created with Inkscape (http://www.inkscape.org/) -->
<svg xmlns:dc="http://purl.org/dc/elements/1.1/" xmlns:cc="http://creativecommons.org/ns#" xmlns:rdf="http://www.w3.org/1999/02/22-rdf-syntax-ns#" xmlns:svg="http://www.w3.org/2000/svg" xmlns="http://www.w3.org/2000/svg" xmlns:sodipodi="http://sodipodi.sourceforge.net/DTD/sodipodi-0.dtd" xmlns:inkscape="http://www.inkscape.org/namespaces/inkscape" id="svg2" sodipodi:version="0.32" inkscape:version="0.46" width="235" height="151.25" xml:space="preserve" sodipodi:docname="PHELMAcmjn.svg" inkscape:output_extension="org.inkscape.output.svg.inkscape"><metadata id="metadata7"><rdf:RDF><cc:Work rdf:about=""><dc:format>image/svg+xml</dc:format><dc:type rdf:resource="http://purl.org/dc/dcmitype/StillImage"/></cc:Work></rdf:RDF></metadata><defs id="defs5"><inkscape:perspective sodipodi:type="inkscape:persp3d" inkscape:vp_x="0 : 526.18109 : 1" inkscape:vp_y="0 : 1000 : 0" inkscape:vp_z="744.09448 : 526.18109 : 1" inkscape:persp3d-origin="372.04724 : 350.78739 : 1" id="perspective9"/><clipPath clipPathUnits="userSpaceOnUse" id="clipPath19"><path d="M 0,1200.25 L 0,0 L 1878.76,0 L 1878.76,1200.25 L 0,1200.25 z" id="path21"/></clipPath></defs><sodipodi:namedview inkscape:window-height="726" inkscape:window-width="645" inkscape:pageshadow="2" inkscape:pageopacity="0.0" guidetolerance="10.0" gridtolerance="10.0" objecttolerance="10.0" borderopacity="1.0" bordercolor="#666666" pagecolor="#ffffff" id="base" showgrid="false" inkscape:zoom="2.3702128" inkscape:cx="117.5" inkscape:cy="75.625" inkscape:window-x="369" inkscape:window-y="25" inkscape:current-layer="g11"/><g id="g11" inkscape:groupmode="layer" inkscape:label="PHELMAcmjn" transform="matrix(1.25,0,0,-1.25,0,151.25)"><g id="g13" transform="scale(0.1,0.1)"><g id="g15"><g id="g17" clip-path="url(#clipPath19)"><path d="M 1487.35,666.535 C 1499.19,538.27 1494.89,408.949 1474.55,282.164 L 1545.32,270.809 C 1566.61,403.52 1571.13,538.863 1558.73,673.121 L 1487.35,666.535" style="fill:#04a1e6;fill-opacity:1;fill-rule:nonzero;stroke:none" id="path23"/><path d="M 1402.08,1050.69 C 1421.64,996.297 1438.35,940.055 1451.75,883.535 L 1521.5,900.07 C 1507.47,959.18 1490,1018.02 1469.53,1074.93 L 1402.08,1050.69" style="fill:#04a1e6;fill-opacity:1;fill-rule:nonzero;stroke:none" id="path25"/><path d="M 1094.45,148.16 C 1132.66,252.547 1152.03,362.367 1152.03,474.574 C 1152.03,534.812 1146.35,595.086 1135.16,653.734 L 1195.19,665.191 C 1207.09,602.77 1213.14,538.641 1213.14,474.574 C 1213.14,355.184 1192.5,238.285 1151.83,127.148 L 1094.45,148.16" style="fill:#8d188f;fill-opacity:1;fill-rule:nonzero;stroke:none" id="path27"/><path d="M 1197.28,25.1797 C 1261.32,166.73 1293.79,317.938 1293.79,474.574 C 1293.79,511.82 1291.9,549.383 1288.17,586.195 L 1348.97,592.367 C 1352.91,553.512 1354.91,513.883 1354.91,474.574 C 1354.91,309.188 1320.6,149.52 1252.94,0 L 1197.28,25.1797" style="fill:#c02229;fill-opacity:1;fill-rule:nonzero;stroke:none" id="path29"/><path d="M 1212.76,888.059 C 1172.38,986.621 1117.73,1078.7 1050.34,1161.74 L 1097.78,1200.25 C 1168.94,1112.57 1226.65,1015.31 1269.3,911.227 L 1212.76,888.059" style="fill:#f68712;fill-opacity:1;fill-rule:nonzero;stroke:none" id="path31"/><path d="M 1675.52,397.777 C 1677.54,423.27 1678.95,449.145 1679.71,474.754 C 1683.72,611.355 1669.55,747.266 1637.54,878.77 L 1696.92,893.215 C 1730.2,756.41 1744.96,615.016 1740.8,472.953 C 1740,446.344 1738.54,419.43 1736.45,392.953 L 1675.52,397.777" style="fill:#80cc28;fill-opacity:1;fill-rule:nonzero;stroke:none" id="path33"/><path d="M 1878.34,512.895 L 1817.25,511.527 C 1817.51,499.398 1817.66,486.961 1817.66,474.574 C 1817.66,418.609 1814.82,362.164 1809.2,306.805 C 1804.22,257.613 1796.94,208.109 1787.54,159.711 L 1817.52,153.891 L 1817.52,153.879 L 1817.52,153.891 L 1847.53,148.07 C 1857.26,198.289 1864.83,249.613 1870,300.641 C 1875.83,358.055 1878.76,416.566 1878.76,474.574 C 1878.76,487.406 1878.62,500.301 1878.34,512.895" style="fill:#2250a9;fill-opacity:1;fill-rule:nonzero;stroke:none" id="path35"/><path d="M 184.965,549.84 L 184.965,470.145 L 224.941,470.145 C 236.504,470.145 242.297,475.98 242.297,487.723 L 242.297,533.285 C 242.297,544.32 236.504,549.84 224.941,549.84 L 184.965,549.84 z M 167.613,584.344 L 224.941,584.344 C 259.352,584.344 276.547,567.164 276.547,532.84 L 276.547,488.414 C 276.547,453.387 259.43,435.887 225.16,435.887 L 184.965,435.887 L 184.965,407.328 C 184.965,395.672 179.254,389.852 167.832,389.852 C 156.422,389.852 150.707,395.523 150.707,406.859 L 150.707,566.859 C 150.707,578.512 156.332,584.344 167.613,584.344" style="fill:#c02229;fill-opacity:1;fill-rule:nonzero;stroke:none" id="path37"/><path d="M 299.395,453.016 L 299.395,613.109 C 299.395,624.461 305.094,630.145 316.516,630.145 C 327.938,630.145 333.648,624.305 333.648,612.66 L 333.648,584.105 L 373.848,584.105 C 408.102,584.105 425.242,566.59 425.242,531.578 L 425.242,452.777 C 425.242,441.363 419.52,435.641 408.102,435.641 C 396.688,435.641 390.98,441.434 390.98,453.016 L 390.98,532.254 C 390.98,543.988 385.191,549.84 373.629,549.84 L 333.648,549.84 L 333.648,453.016 C 333.648,441.434 327.859,435.641 316.293,435.641 C 305.027,435.641 299.395,441.434 299.395,453.016" style="fill:#c02229;fill-opacity:1;fill-rule:nonzero;stroke:none" id="path39"/><path d="M 573.922,452.555 C 573.922,441.285 568.207,435.641 556.797,435.641 L 499.453,435.641 C 465.199,435.641 448.066,453.16 448.066,488.18 L 448.066,566.98 C 448.066,578.395 453.777,584.105 465.199,584.105 L 555.875,584.105 C 567.832,584.188 573.809,578.512 573.809,567.098 C 573.73,555.98 567.898,550.301 556.332,550.086 L 482.336,550.191 L 482.336,527.352 L 533.613,527.586 C 545.176,527.43 550.969,521.527 550.969,509.867 C 551.039,498.758 545.375,493.211 533.949,493.211 L 482.336,493.094 L 482.336,487.379 C 482.336,475.73 488.152,469.906 499.797,469.906 L 557.141,469.793 C 568.316,469.793 573.922,464.051 573.922,452.555" style="fill:#c02229;fill-opacity:1;fill-rule:nonzero;stroke:none" id="path41"/><path d="M 613.652,630.367 C 625.23,630.367 631.02,624.535 631.02,612.879 L 631.02,470.379 C 642.66,470.379 648.367,464.812 648.141,453.688 C 648.141,442.184 642.426,436.324 631.02,436.102 L 613.887,435.887 C 602.461,436.02 596.754,441.766 596.754,453.109 L 596.754,612.879 C 596.754,624.535 602.387,630.367 613.652,630.367" style="fill:#c02229;fill-opacity:1;fill-rule:nonzero;stroke:none" id="path43"/><path d="M 814.078,584.105 C 848.344,584.105 865.469,566.59 865.469,531.578 L 865.469,452.777 C 865.469,441.363 859.758,435.641 848.344,435.641 C 836.926,435.641 831.199,441.434 831.199,453.016 L 831.199,532.254 C 831.199,543.988 825.383,549.84 813.727,549.84 L 785.293,549.84 L 785.535,452.777 C 785.535,441.363 779.812,435.641 768.391,435.641 C 756.977,435.641 751.27,441.434 751.27,453.016 L 751.27,532.254 C 751.27,543.988 745.48,549.84 733.918,549.84 L 705.582,549.84 L 705.582,453.23 C 705.582,441.668 699.789,435.887 688.219,435.887 C 676.949,435.887 671.324,441.668 671.324,453.23 L 671.324,567.098 C 671.324,578.363 677.148,584.105 688.789,584.344 L 814.078,584.105" style="fill:#c02229;fill-opacity:1;fill-rule:nonzero;stroke:none" id="path45"/><path d="M 979.438,515.926 L 979.438,549.84 L 940.035,549.84 C 928.375,549.84 922.555,543.988 922.555,532.254 L 922.555,515.926 L 979.438,515.926 z M 996.91,435.641 C 985.258,435.641 979.438,441.434 979.438,453.016 L 979.438,481.441 L 922.68,481.559 L 922.555,453.016 C 922.555,441.434 916.84,435.641 905.426,435.641 C 894,435.641 888.301,441.363 888.301,452.777 L 888.301,531.578 C 888.301,566.59 905.426,584.105 939.691,584.105 L 996.559,584 C 1007.98,584 1013.69,578.363 1013.69,567.098 L 1013.69,453.016 C 1013.69,441.434 1008.09,435.641 996.91,435.641" style="fill:#c02229;fill-opacity:1;fill-rule:nonzero;stroke:none" id="path47"/><path d="M 98.418,712.059 C 86.6562,699.645 72.0664,694.414 55.7305,694.414 C 39.625,694.414 25.6953,700.301 15.0195,710.969 C -0.21875,726.207 0,743.402 0,773.238 C 0,803.066 -0.21875,820.27 15.0195,835.508 C 25.6953,846.184 39.1953,852.059 55.7305,852.059 C 88.6133,852.059 107.781,830.504 112.129,803.938 L 88.3945,803.938 C 84.4766,820.926 73.1562,830.941 55.7305,830.941 C 46.5938,830.941 38.3164,827.23 32.8828,821.359 C 25.2539,813.082 23.5156,804.383 23.5156,773.238 C 23.5156,742.102 25.2539,733.18 32.8828,724.898 C 38.3164,719.02 46.5938,715.543 55.7305,715.543 C 65.9688,715.543 74.9023,719.461 81,726.426 C 86.6562,732.949 88.832,740.797 88.832,750.812 L 88.832,759.523 L 55.7305,759.523 L 55.7305,779.559 L 112.348,779.559 L 112.348,755.816 C 112.348,735.793 108.652,722.941 98.418,712.059" style="fill:#7b7979;fill-opacity:1;fill-rule:nonzero;stroke:none" id="path49"/><path d="M 226.879,780.199 C 221.871,785.215 217.953,787.609 210.328,787.609 C 198.355,787.609 188.34,778.027 188.34,762.785 L 188.34,695.73 L 166.121,695.73 L 166.121,806.117 L 187.898,806.117 L 187.898,794.145 C 193.57,801.98 204.895,807.43 217.297,807.43 C 227.969,807.43 236.02,804.598 243.648,796.973 L 226.879,780.199" style="fill:#7b7979;fill-opacity:1;fill-rule:nonzero;stroke:none" id="path51"/><path d="M 339.402,774.98 C 335.914,783.254 328.082,788.918 317.629,788.918 C 307.172,788.918 299.117,783.254 295.629,774.98 C 293.453,769.977 293.023,766.699 292.805,759.957 L 342.449,759.957 C 342.23,766.699 341.57,769.977 339.402,774.98 z M 292.805,744.496 C 292.805,725.559 302.816,713.586 320.895,713.586 C 333.305,713.586 339.836,717.062 347.668,724.898 L 361.832,711.621 C 350.508,700.301 339.836,694.414 320.453,694.414 C 292.805,694.414 270.805,709.012 270.805,751.031 C 270.805,786.738 289.324,807.43 317.629,807.43 C 347.234,807.43 364.438,785.648 364.438,754.293 L 364.438,744.496 L 292.805,744.496" style="fill:#7b7979;fill-opacity:1;fill-rule:nonzero;stroke:none" id="path53"/><path d="M 482.887,695.73 L 482.887,763.004 C 482.887,780.199 473.09,787.609 460.68,787.609 C 448.266,787.609 437.812,779.984 437.812,763.004 L 437.812,695.73 L 415.605,695.73 L 415.605,806.117 L 437.383,806.117 L 437.383,795.016 C 444.996,803.285 455.668,807.43 466.773,807.43 C 478.098,807.43 487.461,803.719 493.984,797.406 C 502.48,789.133 505.102,778.684 505.102,766.27 L 505.102,695.73 L 482.887,695.73" style="fill:#7b7979;fill-opacity:1;fill-rule:nonzero;stroke:none" id="path55"/><path d="M 618.102,781.297 C 613.961,785.43 608.305,787.609 601.77,787.609 C 595.234,787.609 589.801,785.43 585.66,781.297 C 578.902,774.547 578.031,763.004 578.031,751.031 C 578.031,739.059 578.902,727.516 585.66,720.758 C 589.801,716.621 595.234,714.234 601.77,714.234 C 608.305,714.234 613.961,716.621 618.102,720.758 C 624.844,727.516 625.727,739.059 625.727,751.031 C 625.727,763.004 624.844,774.547 618.102,781.297 z M 634.867,707.484 C 627.688,700.086 616.793,694.414 601.77,694.414 C 586.746,694.414 576.074,700.086 568.891,707.484 C 558.438,718.371 555.828,732.301 555.828,751.031 C 555.828,769.543 558.438,783.473 568.891,794.359 C 576.074,801.766 586.746,807.43 601.77,807.43 C 616.793,807.43 627.688,801.766 634.867,794.359 C 645.32,783.473 647.93,769.543 647.93,751.031 C 647.93,732.301 645.32,718.371 634.867,707.484" style="fill:#7b7979;fill-opacity:1;fill-rule:nonzero;stroke:none" id="path57"/><path d="M 745.039,787.609 C 725.016,787.609 721.969,770.625 721.969,751.031 C 721.969,731.434 725.016,714.234 745.039,714.234 C 765.078,714.234 767.906,731.434 767.906,751.031 C 767.906,770.625 765.078,787.609 745.039,787.609 z M 777.699,704.215 C 771.605,698.121 761.812,694.414 750.699,694.414 C 738.734,694.414 729.801,697.473 721.523,707.484 L 721.523,695.73 L 699.75,695.73 L 699.75,850.754 L 721.969,850.754 L 721.969,795.016 C 730.02,804.598 739.164,807.43 750.93,807.43 C 762.02,807.43 771.605,803.719 777.699,797.621 C 788.805,786.52 790.113,767.789 790.113,751.031 C 790.113,734.266 788.805,715.324 777.699,704.215" style="fill:#7b7979;fill-opacity:1;fill-rule:nonzero;stroke:none" id="path59"/><path d="M 871.555,695.73 C 850.426,695.73 841.277,709.879 841.277,726.207 L 841.277,850.754 L 863.484,850.754 L 863.484,727.516 C 863.484,719.02 866.531,714.664 875.469,714.664 L 885.266,714.664 L 885.266,695.73 L 871.555,695.73" style="fill:#7b7979;fill-opacity:1;fill-rule:nonzero;stroke:none" id="path61"/><path d="M 988.863,774.98 C 985.387,783.254 977.555,788.918 967.094,788.918 C 956.645,788.918 948.59,783.254 945.113,774.98 C 942.926,769.977 942.496,766.699 942.27,759.957 L 991.93,759.957 C 991.703,766.699 991.051,769.977 988.863,774.98 z M 942.27,744.496 C 942.27,725.559 952.289,713.586 970.367,713.586 C 982.777,713.586 989.301,717.062 997.145,724.898 L 1011.29,711.621 C 999.977,700.301 989.301,694.414 969.926,694.414 C 942.27,694.414 920.277,709.012 920.277,751.031 C 920.277,786.738 938.793,807.43 967.094,807.43 C 996.715,807.43 1013.91,785.648 1013.91,754.293 L 1013.91,744.496 L 942.27,744.496" style="fill:#7b7979;fill-opacity:1;fill-rule:nonzero;stroke:none" id="path63"/><path d="M 1137.15,695.73 L 1175.2633,695.73 L 1175.2633,850.753 L 1137.15,850.753 L 1137.15,695.73 z" style="fill:#c02229;fill-opacity:1;fill-rule:nonzero;stroke:none" id="path65"/><path d="M 1316.12,695.73 L 1266.48,773.672 L 1266.48,695.73 L 1228.37,695.73 L 1228.37,850.754 L 1261.68,850.754 L 1311.33,772.805 L 1311.33,850.754 L 1349.44,850.754 L 1349.44,695.73 L 1316.12,695.73" style="fill:#c02229;fill-opacity:1;fill-rule:nonzero;stroke:none" id="path67"/><path d="M 1462.23,816.574 L 1440.68,816.574 L 1440.68,785.215 L 1462.23,785.215 C 1472.68,785.215 1478.78,792.84 1478.78,800.891 C 1478.78,808.945 1472.68,816.574 1462.23,816.574 z M 1463.97,751.031 L 1440.68,751.031 L 1440.68,695.73 L 1402.56,695.73 L 1402.56,850.754 L 1463.97,850.754 C 1498.37,850.754 1516.89,826.363 1516.89,800.891 C 1516.89,775.418 1498.37,751.031 1463.97,751.031" style="fill:#c02229;fill-opacity:1;fill-rule:nonzero;stroke:none" id="path69"/></g></g></g></g></svg>