<?xml version="1.0" encoding="UTF-8"?>
<!-- Generator: Adobe Illustrator 21.1.0, SVG Export Plug-In . SVG Version: 6.00 Build 0)  -->
<svg version="1.1" id="Calque_1" xmlns="http://www.w3.org/2000/svg" xmlns:xlink="http://www.w3.org/1999/xlink" x="0px" y="0px" viewBox="0 0 298.9 51" enable-background="new 0 0 298.9 51" xml:space="preserve">
<g>
	<g>
		<path fill="#1D1D1B" d="M37.8,49.6H22.5v-2.1c0.5,0,1-0.1,1.6-0.1c0.6,0,1.1-0.1,1.4-0.3c0.6-0.2,1-0.5,1.3-1    c0.3-0.5,0.4-1.1,0.4-1.9V28.2c0-2.2-0.5-3.9-1.6-5.1c-1-1.2-2.3-1.8-3.8-1.8c-1.1,0-2.2,0.2-3.1,0.5c-0.9,0.3-1.8,0.8-2.5,1.3    c-0.7,0.5-1.3,1-1.7,1.6c-0.4,0.6-0.7,1-0.9,1.3v18c0,0.7,0.1,1.3,0.4,1.8c0.3,0.5,0.7,0.8,1.3,1.1c0.4,0.2,0.9,0.4,1.4,0.5    c0.5,0.1,1.1,0.2,1.6,0.2v2.1H3.3v-2.1c0.5,0,1-0.1,1.5-0.1c0.5,0,1-0.1,1.3-0.3c0.6-0.2,1-0.5,1.3-1c0.3-0.5,0.4-1.1,0.4-1.9V25    c0-0.7-0.2-1.4-0.5-2c-0.3-0.6-0.7-1.1-1.3-1.5c-0.4-0.3-0.9-0.4-1.4-0.6c-0.5-0.1-1.1-0.2-1.8-0.2v-2.1l10.4-0.7l0.4,0.4v4.4h0.2    c0.5-0.5,1.1-1.1,1.9-1.8c0.8-0.7,1.5-1.3,2.2-1.7c0.8-0.5,1.7-0.9,2.8-1.3c1.1-0.3,2.3-0.5,3.6-0.5c3,0,5.2,0.9,6.7,2.8    c1.4,1.9,2.2,4.4,2.2,7.5V44c0,0.7,0.1,1.3,0.4,1.8c0.3,0.5,0.7,0.8,1.3,1.1c0.5,0.2,0.9,0.4,1.3,0.4c0.4,0.1,0.9,0.1,1.5,0.2    V49.6z"/>
		<path fill="#1D1D1B" d="M74.4,49l-10.2,0.7l-0.5-0.4v-4h-0.2c-0.5,0.5-1.1,1.1-1.7,1.7c-0.6,0.6-1.4,1.1-2.2,1.6    c-0.9,0.6-1.9,1-2.8,1.3c-0.9,0.3-2.1,0.4-3.8,0.4c-2.8,0-4.9-0.9-6.3-2.7c-1.4-1.8-2.2-4.4-2.2-7.9v-15c0-0.8-0.1-1.4-0.4-1.9    c-0.3-0.5-0.7-1-1.3-1.3c-0.4-0.3-0.9-0.4-1.4-0.6c-0.6-0.1-1.2-0.2-1.8-0.2v-2.1l10.4-0.8l0.5,0.4v21.7c0,2.3,0.5,4,1.5,5.1    c1,1.1,2.2,1.7,3.6,1.7c1.2,0,2.2-0.2,3.1-0.5c0.9-0.4,1.7-0.8,2.3-1.3c0.6-0.4,1.1-0.9,1.5-1.4c0.4-0.5,0.8-1,1-1.4V24.6    c0-0.7-0.1-1.3-0.4-1.9c-0.3-0.5-0.7-1-1.2-1.4c-0.4-0.3-0.9-0.4-1.7-0.5c-0.8-0.1-1.6-0.1-2.5-0.1v-2.1l11.4-0.8l0.5,0.4v24.8    c0,0.7,0.1,1.3,0.4,1.8c0.3,0.5,0.7,0.9,1.2,1.3c0.4,0.2,0.8,0.4,1.4,0.5c0.5,0.1,1.1,0.1,1.7,0.1V49z"/>
		<path fill="#1D1D1B" d="M130.9,49.6h-15.2v-2.1c0.5,0,1-0.1,1.5-0.1c0.5,0,0.9-0.1,1.3-0.3c0.6-0.2,1-0.5,1.3-1    c0.3-0.5,0.4-1.1,0.4-1.9V28.1c0-2.2-0.5-3.9-1.5-5.1c-1-1.2-2.3-1.8-3.8-1.8c-1,0-2,0.2-2.9,0.5c-0.9,0.3-1.7,0.8-2.5,1.3    c-0.6,0.5-1.1,1-1.5,1.5c-0.4,0.5-0.7,1-0.9,1.3V44c0,0.7,0.1,1.3,0.4,1.8c0.3,0.5,0.7,0.8,1.3,1.1c0.5,0.2,0.9,0.3,1.3,0.4    c0.4,0.1,0.9,0.2,1.5,0.2v2.1H96.6v-2.1c0.5,0,1-0.1,1.4-0.1c0.5,0,0.9-0.1,1.3-0.3c0.6-0.2,1-0.5,1.3-1c0.3-0.5,0.4-1.1,0.4-1.9    V28.1c0-2.2-0.5-3.9-1.5-5.1c-1-1.2-2.3-1.8-3.8-1.8c-1,0-2,0.2-2.9,0.5c-0.9,0.3-1.8,0.8-2.5,1.3c-0.6,0.5-1.1,1-1.6,1.6    c-0.4,0.6-0.7,1-1,1.3v17.9c0,0.7,0.1,1.3,0.4,1.8c0.3,0.5,0.7,0.9,1.3,1.1c0.4,0.2,0.9,0.4,1.4,0.5c0.5,0.1,1,0.2,1.6,0.2v2.1    H77.3v-2.1c0.5,0,1-0.1,1.5-0.1c0.5,0,1-0.1,1.3-0.3c0.6-0.2,1-0.5,1.3-1c0.3-0.5,0.4-1.1,0.4-1.9V24.9c0-0.7-0.2-1.3-0.5-1.8    c-0.3-0.5-0.7-1-1.3-1.4c-0.4-0.3-0.9-0.5-1.5-0.6c-0.6-0.2-1.2-0.3-1.8-0.3v-2.1l10.5-0.7l0.4,0.4v4.5H88    c0.5-0.5,1.2-1.2,1.9-1.9c0.8-0.7,1.5-1.3,2.1-1.7c0.7-0.5,1.7-0.9,2.8-1.3c1.1-0.3,2.3-0.5,3.6-0.5c2,0,3.8,0.5,5.2,1.6    c1.5,1.1,2.5,2.4,3.1,3.9c0.8-0.7,1.4-1.4,2-2c0.6-0.6,1.3-1.2,2.3-1.8c0.8-0.5,1.7-1,2.8-1.3c1.1-0.3,2.3-0.5,3.6-0.5    c2.6,0,4.7,0.9,6.3,2.6c1.5,1.7,2.3,4.4,2.3,8V44c0,0.7,0.1,1.3,0.4,1.8c0.3,0.5,0.7,0.8,1.3,1.1c0.5,0.2,1,0.3,1.4,0.4    c0.5,0.1,1,0.2,1.6,0.2V49.6z"/>
		<path fill="#1D1D1B" d="M161.5,42.3c-1.3,2.5-3.1,4.5-5.3,6c-2.2,1.5-4.7,2.2-7.6,2.2c-2.5,0-4.7-0.4-6.6-1.3    c-1.9-0.9-3.5-2.1-4.7-3.6c-1.2-1.5-2.1-3.3-2.7-5.3c-0.6-2-0.9-4.2-0.9-6.4c0-2,0.3-4,1-6c0.6-2,1.6-3.7,2.8-5.3    c1.2-1.5,2.7-2.7,4.5-3.6c1.8-0.9,3.8-1.4,6-1.4c2.3,0,4.2,0.4,5.9,1.1c1.6,0.7,3,1.7,4,3c1,1.2,1.7,2.6,2.2,4.2    c0.5,1.6,0.7,3.4,0.7,5.2V33h-20.7c0,2.1,0.2,3.9,0.6,5.6c0.4,1.7,1,3.1,1.9,4.4c0.8,1.2,1.9,2.2,3.2,2.9c1.3,0.7,2.9,1.1,4.8,1.1    c1.9,0,3.5-0.4,4.9-1.3c1.4-0.9,2.7-2.5,3.9-4.8L161.5,42.3z M154.5,30.3c0-1.2-0.1-2.4-0.3-3.8c-0.2-1.3-0.5-2.5-1-3.4    c-0.5-1-1.2-1.8-2-2.4c-0.8-0.6-1.9-0.9-3.3-0.9c-2.2,0-4.1,0.9-5.5,2.8c-1.5,1.8-2.3,4.4-2.4,7.7H154.5z"/>
		<path fill="#1D1D1B" d="M198.6,49l-10.9,0.7l-0.5-0.4v-2.9l-0.3-0.1c-1.1,1.2-2.5,2.2-4.1,3c-1.6,0.8-3.3,1.2-5,1.2    c-1.8,0-3.5-0.4-5.1-1.2c-1.7-0.8-3.1-1.9-4.3-3.3c-1.2-1.5-2.2-3.2-3-5.3c-0.7-2.1-1.1-4.3-1.1-6.8c0-2.3,0.4-4.4,1.2-6.4    c0.8-2,1.9-3.8,3.2-5.3c1.3-1.4,2.9-2.5,4.7-3.4c1.9-0.8,3.8-1.3,5.7-1.3c1.5,0,2.9,0.2,4.3,0.6c1.4,0.4,2.6,0.8,3.6,1.4V8.5    c0-0.9-0.1-1.7-0.4-2.4c-0.3-0.7-0.7-1.3-1.2-1.7C184.8,4,184,3.7,183,3.6c-1-0.2-2.1-0.3-3.3-0.4v-2l12.8-0.7L193,1v42.2    c0,0.7,0.1,1.4,0.4,1.9c0.3,0.5,0.7,1,1.3,1.3c0.4,0.3,1,0.4,1.7,0.5c0.8,0.1,1.5,0.1,2.1,0.1V49z M187.1,43.6V25.2    c-0.2-0.5-0.4-1.1-0.8-1.8c-0.4-0.6-0.9-1.2-1.4-1.7c-0.6-0.5-1.3-1-2.2-1.3c-0.8-0.3-1.8-0.5-2.9-0.5c-1.3,0-2.4,0.3-3.5,1    c-1.1,0.7-2,1.6-2.8,2.8c-0.8,1.2-1.4,2.7-1.9,4.5c-0.5,1.8-0.7,3.9-0.7,6.1c0,1.8,0.2,3.4,0.5,4.8c0.3,1.4,0.9,2.8,1.7,4    c0.7,1.2,1.7,2.1,2.8,2.9c1.2,0.7,2.5,1.1,4.1,1.1c1.7,0,3.1-0.4,4.2-1.1C185.4,45.3,186.3,44.4,187.1,43.6z"/>
		<path fill="#1D1D1B" d="M215.9,49.6h-15.1v-2.1c0.5,0,1-0.1,1.5-0.1c0.5,0,1-0.1,1.3-0.3c0.6-0.2,1-0.5,1.3-1    c0.3-0.5,0.4-1.1,0.4-1.9V25c0-0.7-0.2-1.3-0.5-1.9c-0.3-0.6-0.7-1-1.3-1.4c-0.4-0.3-1-0.5-1.7-0.6c-0.8-0.2-1.5-0.3-2.1-0.3v-2.1    l11-0.7l0.4,0.4v25.5c0,0.7,0.1,1.4,0.4,1.8c0.3,0.5,0.7,0.8,1.3,1.1c0.5,0.2,0.9,0.3,1.4,0.5c0.4,0.1,0.9,0.2,1.5,0.2V49.6z     M212,5.6c0,1.2-0.4,2.3-1.2,3.2c-0.8,0.9-1.8,1.3-2.9,1.3c-1.1,0-2-0.4-2.8-1.3c-0.8-0.9-1.2-1.8-1.2-2.9c0-1.2,0.4-2.2,1.2-3    s1.7-1.3,2.8-1.3c1.2,0,2.2,0.4,3,1.2C211.6,3.6,212,4.5,212,5.6z"/>
		<path fill="#CC1236" d="M248.6,49c-1,0.4-1.9,0.7-2.6,0.9c-0.8,0.2-1.6,0.3-2.6,0.3c-1.6,0-3-0.4-3.9-1.2c-1-0.8-1.6-1.9-1.9-3.4    h-0.2c-1.4,1.5-2.9,2.7-4.4,3.5c-1.6,0.8-3.5,1.2-5.7,1.2c-2.3,0-4.3-0.7-5.8-2.2c-1.5-1.4-2.3-3.3-2.3-5.6c0-1.2,0.2-2.3,0.5-3.2    c0.3-1,0.8-1.8,1.5-2.6c0.5-0.6,1.2-1.2,2.1-1.7c0.9-0.5,1.7-0.9,2.4-1.2c1-0.4,2.9-1,5.8-2c2.9-1,4.9-1.7,5.9-2.3v-3.1    c0-0.3-0.1-0.8-0.2-1.6c-0.1-0.8-0.4-1.5-0.7-2.2c-0.4-0.8-1-1.5-1.8-2c-0.8-0.6-1.9-0.9-3.3-0.9c-1,0-1.9,0.2-2.7,0.5    c-0.8,0.3-1.4,0.7-1.8,1c0,0.4,0.1,1,0.3,1.9c0.2,0.8,0.3,1.6,0.3,2.3c0,0.7-0.3,1.4-1,2s-1.6,0.9-2.8,0.9c-1.1,0-1.8-0.4-2.3-1.1    c-0.5-0.8-0.7-1.6-0.7-2.5c0-1,0.3-1.9,1-2.8c0.7-0.9,1.6-1.7,2.7-2.4c1-0.6,2.1-1.1,3.5-1.5c1.4-0.4,2.7-0.6,4-0.6    c1.8,0,3.3,0.1,4.6,0.4c1.3,0.2,2.5,0.8,3.6,1.6c1.1,0.8,1.9,1.8,2.5,3.2c0.6,1.3,0.8,3.1,0.8,5.2c0,3,0,5.7-0.1,8    c-0.1,2.3-0.1,4.9-0.1,7.7c0,0.8,0.1,1.5,0.4,2c0.3,0.5,0.7,0.9,1.3,1.2c0.3,0.2,0.8,0.3,1.5,0.3c0.7,0,1.4,0,2.1,0V49z     M237.5,32.3c-1.8,0.5-3.4,1-4.7,1.6c-1.4,0.5-2.6,1.1-3.8,1.9c-1.1,0.7-1.9,1.6-2.5,2.6c-0.6,1-0.9,2.2-0.9,3.5    c0,1.8,0.5,3.1,1.4,3.9c0.9,0.8,2.1,1.2,3.5,1.2c1.5,0,2.8-0.4,4-1.1c1.1-0.7,2.1-1.6,2.9-2.6L237.5,32.3z"/>
		<path fill="#CC1236" d="M274.8,22.4c0,1.1-0.3,2-0.8,2.9c-0.5,0.8-1.3,1.3-2.4,1.3c-1.2,0-2.1-0.3-2.7-0.9c-0.6-0.6-0.9-1.3-0.9-2    c0-0.5,0-0.9,0.1-1.3c0.1-0.4,0.1-0.8,0.2-1.1c-1,0-2.2,0.4-3.5,1.2c-1.3,0.8-2.5,1.9-3.4,3.4V44c0,0.7,0.1,1.3,0.4,1.8    c0.3,0.5,0.7,0.8,1.3,1c0.5,0.2,1.2,0.4,2,0.5c0.8,0.1,1.6,0.2,2.2,0.2v2.1h-16.5v-2.1c0.5,0,1-0.1,1.5-0.1c0.5,0,1-0.1,1.3-0.3    c0.6-0.2,1-0.5,1.3-1c0.3-0.5,0.4-1.1,0.4-1.9V25c0-0.7-0.2-1.3-0.5-1.9c-0.3-0.6-0.7-1.1-1.3-1.5c-0.4-0.3-0.9-0.4-1.4-0.6    c-0.5-0.1-1.1-0.2-1.8-0.2v-2.1l10.4-0.7l0.4,0.4v4.4h0.2c1.3-1.7,2.8-3,4.4-3.9c1.6-0.9,3.1-1.3,4.4-1.3c1.3,0,2.4,0.4,3.3,1.3    C274.4,19.7,274.8,20.9,274.8,22.4z"/>
		<path fill="#CC1236" d="M295.9,48.2c-1.4,0.6-2.7,1.1-3.9,1.4c-1.2,0.4-2.7,0.6-4.5,0.6c-2.6,0-4.5-0.7-5.5-2    c-1.1-1.3-1.6-3.2-1.6-5.6V21.5h-5.6v-3h5.8V8.7h5.8v9.7h9v3h-8.9V39c0,1.3,0,2.4,0.1,3.3c0.1,0.9,0.3,1.6,0.7,2.3    c0.3,0.6,0.8,1.1,1.5,1.4c0.7,0.3,1.6,0.5,2.7,0.5c0.5,0,1.3,0,2.3-0.1c1-0.1,1.8-0.2,2.2-0.4V48.2z"/>
	</g>
</g>
</svg>