<svg version="1.1" class="logo-prelude" xmlns="http://www.w3.org/2000/svg" xmlns:xlink="http://www.w3.org/1999/xlink" x="0px" y="0px" viewBox="0 0 68 17.6" style="enable-background:new 0 0 68 17.6;" xml:space="preserve" width="69" height="18">
	<g>
		<g>
			<path fill="#888A8D" d="M11.1,9.1c0,3.5-2,5.3-5.4,5.3C2.1,14.4,0,12.8,0,9.1V0.3h1.8v8.8c0,2.4,1.4,3.8,3.8,3.8     c2.3,0,3.6-1.3,3.6-3.8V0.3h1.8V9.1z"/>
		</g>
		<g>
			<path fill="#BD0E3A" d="M13.9,0.3h1.9l4.8,12.1l4.8-12.1h1.9v13.8H26V2.2h0l-4.7,11.9H20L15.3,2.2h0v11.9h-1.3V0.3z"/>
			<path fill="#BD0E3A" d="M35.8,0c4.3,0,6.5,3.4,6.5,7.2c0,3.8-2.2,7.2-6.5,7.2c-4.3,0-6.5-3.4-6.5-7.2C29.3,3.4,31.5,0,35.8,0z      M35.8,13.3c3.6,0,5.2-3.1,5.2-6.1c0-3-1.5-6.1-5.2-6.1c-3.7,0-5.2,3.1-5.2,6.1C30.6,10.2,32.1,13.3,35.8,13.3z"/>
			<path fill="#BD0E3A" d="M44.3,0.3h1.5l8,11.7h0V0.3h1.3v13.8h-1.5l-8-11.7h0v11.7h-1.3V0.3z"/>
			<path fill="#BD0E3A" d="M58.5,9.5c-0.1,2.8,2,3.7,4.5,3.7c1.4,0,3.7-0.8,3.7-2.8c0-1.6-1.6-2.2-2.8-2.5l-3.1-0.8     c-1.6-0.4-3.1-1.2-3.1-3.3c0-1.4,0.9-3.9,4.8-3.9c2.7,0,5.1,1.5,5.1,4.3h-1.3c-0.1-2.1-1.8-3.2-3.8-3.2c-1.8,0-3.5,0.7-3.5,2.7     c0,1.3,1,1.8,2.1,2.1l3.4,0.8c2,0.5,3.6,1.4,3.6,3.6c0,0.9-0.4,3.9-5.3,3.9c-3.3,0-5.7-1.5-5.5-4.8H58.5z"/>
		</g>
		<polygon fill="#BD0E3A" points="0,16.4 11.1,16.4 11.1,17.6 0,17.6 0,16.4"/>
	</g>
</svg>